<mxfile host="app.diagrams.net" modified="2023-07-10T12:16:00.848Z" agent="Mozilla/5.0 (X11; Linux x86_64) AppleWebKit/537.36 (KHTML, like Gecko) Chrome/114.0.0.0 Safari/537.36" etag="AYojhQUsx66Xy-aBHOg3" version="21.6.1" type="github">
  <diagram name="第 1 页" id="-OKN-Ko5c03PFQFdDGvh">
    <mxGraphModel dx="1374" dy="852" grid="1" gridSize="10" guides="1" tooltips="1" connect="1" arrows="1" fold="1" page="1" pageScale="1" pageWidth="827" pageHeight="1169" math="0" shadow="0">
      <root>
        <mxCell id="0" />
        <mxCell id="1" parent="0" />
        <mxCell id="W5n4n_WYN5VeSaFKLsZu-1" value="Conv" style="rounded=0;whiteSpace=wrap;html=1;" vertex="1" parent="1">
          <mxGeometry x="70" y="110" width="80" height="40" as="geometry" />
        </mxCell>
        <mxCell id="W5n4n_WYN5VeSaFKLsZu-2" value="Conv" style="rounded=0;whiteSpace=wrap;html=1;" vertex="1" parent="1">
          <mxGeometry x="70" y="170" width="80" height="40" as="geometry" />
        </mxCell>
        <mxCell id="W5n4n_WYN5VeSaFKLsZu-3" value="C3" style="rounded=0;whiteSpace=wrap;html=1;" vertex="1" parent="1">
          <mxGeometry x="70" y="250" width="80" height="40" as="geometry" />
        </mxCell>
        <mxCell id="W5n4n_WYN5VeSaFKLsZu-4" value="Conv" style="rounded=0;whiteSpace=wrap;html=1;" vertex="1" parent="1">
          <mxGeometry x="70" y="320" width="80" height="40" as="geometry" />
        </mxCell>
        <mxCell id="W5n4n_WYN5VeSaFKLsZu-5" value="C3" style="rounded=0;whiteSpace=wrap;html=1;" vertex="1" parent="1">
          <mxGeometry x="70" y="400" width="80" height="40" as="geometry" />
        </mxCell>
        <mxCell id="W5n4n_WYN5VeSaFKLsZu-6" value="Conv" style="rounded=0;whiteSpace=wrap;html=1;" vertex="1" parent="1">
          <mxGeometry x="70" y="480" width="80" height="40" as="geometry" />
        </mxCell>
        <mxCell id="W5n4n_WYN5VeSaFKLsZu-7" value="C3" style="rounded=0;whiteSpace=wrap;html=1;" vertex="1" parent="1">
          <mxGeometry x="70" y="550" width="80" height="40" as="geometry" />
        </mxCell>
        <mxCell id="W5n4n_WYN5VeSaFKLsZu-8" value="Conv" style="rounded=0;whiteSpace=wrap;html=1;" vertex="1" parent="1">
          <mxGeometry x="70" y="630" width="80" height="40" as="geometry" />
        </mxCell>
        <mxCell id="W5n4n_WYN5VeSaFKLsZu-9" value="C3" style="rounded=0;whiteSpace=wrap;html=1;" vertex="1" parent="1">
          <mxGeometry x="70" y="710" width="80" height="40" as="geometry" />
        </mxCell>
        <mxCell id="W5n4n_WYN5VeSaFKLsZu-10" value="" style="endArrow=classic;html=1;rounded=0;exitX=0.5;exitY=1;exitDx=0;exitDy=0;entryX=0.5;entryY=0;entryDx=0;entryDy=0;" edge="1" parent="1" source="W5n4n_WYN5VeSaFKLsZu-1" target="W5n4n_WYN5VeSaFKLsZu-2">
          <mxGeometry width="50" height="50" relative="1" as="geometry">
            <mxPoint x="390" y="460" as="sourcePoint" />
            <mxPoint x="440" y="410" as="targetPoint" />
          </mxGeometry>
        </mxCell>
        <mxCell id="W5n4n_WYN5VeSaFKLsZu-11" value="" style="endArrow=classic;html=1;rounded=0;exitX=0.5;exitY=1;exitDx=0;exitDy=0;entryX=0.5;entryY=0;entryDx=0;entryDy=0;" edge="1" parent="1" source="W5n4n_WYN5VeSaFKLsZu-2" target="W5n4n_WYN5VeSaFKLsZu-3">
          <mxGeometry width="50" height="50" relative="1" as="geometry">
            <mxPoint x="260" y="210" as="sourcePoint" />
            <mxPoint x="260" y="250" as="targetPoint" />
          </mxGeometry>
        </mxCell>
        <mxCell id="W5n4n_WYN5VeSaFKLsZu-12" value="" style="endArrow=classic;html=1;rounded=0;exitX=0.5;exitY=1;exitDx=0;exitDy=0;entryX=0.5;entryY=0;entryDx=0;entryDy=0;" edge="1" parent="1" source="W5n4n_WYN5VeSaFKLsZu-3" target="W5n4n_WYN5VeSaFKLsZu-4">
          <mxGeometry width="50" height="50" relative="1" as="geometry">
            <mxPoint x="230" y="240" as="sourcePoint" />
            <mxPoint x="230" y="280" as="targetPoint" />
          </mxGeometry>
        </mxCell>
        <mxCell id="W5n4n_WYN5VeSaFKLsZu-13" value="" style="endArrow=classic;html=1;rounded=0;exitX=0.5;exitY=1;exitDx=0;exitDy=0;entryX=0.5;entryY=0;entryDx=0;entryDy=0;" edge="1" parent="1" source="W5n4n_WYN5VeSaFKLsZu-4" target="W5n4n_WYN5VeSaFKLsZu-5">
          <mxGeometry width="50" height="50" relative="1" as="geometry">
            <mxPoint x="310" y="340" as="sourcePoint" />
            <mxPoint x="310" y="380" as="targetPoint" />
          </mxGeometry>
        </mxCell>
        <mxCell id="W5n4n_WYN5VeSaFKLsZu-14" value="" style="endArrow=classic;html=1;rounded=0;exitX=0.5;exitY=1;exitDx=0;exitDy=0;entryX=0.5;entryY=0;entryDx=0;entryDy=0;" edge="1" parent="1" source="W5n4n_WYN5VeSaFKLsZu-5" target="W5n4n_WYN5VeSaFKLsZu-6">
          <mxGeometry width="50" height="50" relative="1" as="geometry">
            <mxPoint x="350" y="330" as="sourcePoint" />
            <mxPoint x="350" y="370" as="targetPoint" />
          </mxGeometry>
        </mxCell>
        <mxCell id="W5n4n_WYN5VeSaFKLsZu-15" value="" style="endArrow=classic;html=1;rounded=0;exitX=0.5;exitY=1;exitDx=0;exitDy=0;" edge="1" parent="1" source="W5n4n_WYN5VeSaFKLsZu-6" target="W5n4n_WYN5VeSaFKLsZu-7">
          <mxGeometry width="50" height="50" relative="1" as="geometry">
            <mxPoint x="350" y="430" as="sourcePoint" />
            <mxPoint x="350" y="470" as="targetPoint" />
          </mxGeometry>
        </mxCell>
        <mxCell id="W5n4n_WYN5VeSaFKLsZu-16" value="" style="endArrow=classic;html=1;rounded=0;exitX=0.5;exitY=1;exitDx=0;exitDy=0;entryX=0.5;entryY=0;entryDx=0;entryDy=0;" edge="1" parent="1" source="W5n4n_WYN5VeSaFKLsZu-7" target="W5n4n_WYN5VeSaFKLsZu-8">
          <mxGeometry width="50" height="50" relative="1" as="geometry">
            <mxPoint x="520" y="390" as="sourcePoint" />
            <mxPoint x="520" y="430" as="targetPoint" />
          </mxGeometry>
        </mxCell>
        <mxCell id="W5n4n_WYN5VeSaFKLsZu-17" value="" style="endArrow=classic;html=1;rounded=0;exitX=0.5;exitY=1;exitDx=0;exitDy=0;entryX=0.5;entryY=0;entryDx=0;entryDy=0;" edge="1" parent="1" source="W5n4n_WYN5VeSaFKLsZu-8" target="W5n4n_WYN5VeSaFKLsZu-9">
          <mxGeometry width="50" height="50" relative="1" as="geometry">
            <mxPoint x="620" y="460" as="sourcePoint" />
            <mxPoint x="620" y="500" as="targetPoint" />
          </mxGeometry>
        </mxCell>
        <mxCell id="W5n4n_WYN5VeSaFKLsZu-18" value="SPPF" style="rounded=0;whiteSpace=wrap;html=1;" vertex="1" parent="1">
          <mxGeometry x="70" y="780" width="80" height="40" as="geometry" />
        </mxCell>
        <mxCell id="W5n4n_WYN5VeSaFKLsZu-19" value="" style="endArrow=classic;html=1;rounded=0;exitX=0.5;exitY=1;exitDx=0;exitDy=0;" edge="1" parent="1" source="W5n4n_WYN5VeSaFKLsZu-9" target="W5n4n_WYN5VeSaFKLsZu-18">
          <mxGeometry width="50" height="50" relative="1" as="geometry">
            <mxPoint x="330" y="600" as="sourcePoint" />
            <mxPoint x="330" y="640" as="targetPoint" />
          </mxGeometry>
        </mxCell>
        <mxCell id="W5n4n_WYN5VeSaFKLsZu-20" value="Conv" style="rounded=0;whiteSpace=wrap;html=1;" vertex="1" parent="1">
          <mxGeometry x="230" y="780" width="80" height="40" as="geometry" />
        </mxCell>
        <mxCell id="W5n4n_WYN5VeSaFKLsZu-21" value="Upsample" style="rounded=0;whiteSpace=wrap;html=1;" vertex="1" parent="1">
          <mxGeometry x="230" y="710" width="80" height="40" as="geometry" />
        </mxCell>
        <mxCell id="W5n4n_WYN5VeSaFKLsZu-22" value="Cat" style="ellipse;whiteSpace=wrap;html=1;aspect=fixed;" vertex="1" parent="1">
          <mxGeometry x="250" y="630" width="40" height="40" as="geometry" />
        </mxCell>
        <mxCell id="W5n4n_WYN5VeSaFKLsZu-23" value="C3" style="rounded=0;whiteSpace=wrap;html=1;" vertex="1" parent="1">
          <mxGeometry x="230" y="550" width="80" height="40" as="geometry" />
        </mxCell>
        <mxCell id="W5n4n_WYN5VeSaFKLsZu-24" value="Conv" style="rounded=0;whiteSpace=wrap;html=1;" vertex="1" parent="1">
          <mxGeometry x="230" y="480" width="80" height="40" as="geometry" />
        </mxCell>
        <mxCell id="W5n4n_WYN5VeSaFKLsZu-25" value="Upsample" style="rounded=0;whiteSpace=wrap;html=1;" vertex="1" parent="1">
          <mxGeometry x="230" y="410" width="80" height="40" as="geometry" />
        </mxCell>
        <mxCell id="W5n4n_WYN5VeSaFKLsZu-26" value="Cat" style="ellipse;whiteSpace=wrap;html=1;aspect=fixed;" vertex="1" parent="1">
          <mxGeometry x="250" y="330" width="40" height="40" as="geometry" />
        </mxCell>
        <mxCell id="W5n4n_WYN5VeSaFKLsZu-27" value="C3" style="rounded=0;whiteSpace=wrap;html=1;" vertex="1" parent="1">
          <mxGeometry x="230" y="250" width="80" height="40" as="geometry" />
        </mxCell>
      </root>
    </mxGraphModel>
  </diagram>
</mxfile>
